<svg width="700" height="520" viewBox="0 0 700 520" fill="none" xmlns="http://www.w3.org/2000/svg">
  <rect width="700" height="520" rx="40" fill="#e7f5ed" />
  <path d="M260 160V360C260 390 236 414 206 414C176 414 152 390 152 360C152 330 176 306 206 306C219 306 232 310 242 318V160H528V320C528 350 504 374 474 374C444 374 420 350 420 320C420 290 444 266 474 266C487 266 500 270 510 278V214H308V360C308 408 270 446 222 446C174 446 136 408 136 360C136 312 174 274 222 274C236 274 250 278 260 286V160Z" fill="#2f7c34" opacity="0.85" />
  <circle cx="474" cy="320" r="58" fill="#4caf50" />
  <circle cx="206" cy="360" r="68" fill="#6dd36d" />
</svg>
